REM DIRINDEX 1\5,1\2\6,1\2\7,1\3\8,1\3\9,1\4\10,1\4\11,1\4\12
REM DIRNAME folder01,folder02,folder03,folder04,folder05,folder06,folder07,folder08,folder09,folder10,folder11,folder12
TITLE ""
FILE "EJE_DB3000_5th_2A_44.mp3" MP3
  TRACK 01 AUDIO
    TITLE "0:"
    INDEX 01 00:00:00
  TRACK 02 AUDIO
    TITLE "10:cjc026_08046"
    INDEX 01 00:00:05
  TRACK 03 AUDIO
    TITLE "0:"
    INDEX 01 00:01:01
  TRACK 04 AUDIO
    TITLE "11:cjc026_08047"
    INDEX 01 00:01:26
  TRACK 05 AUDIO
    TITLE "0:"
    INDEX 01 00:04:13
  TRACK 06 AUDIO
    TITLE "12:cjc026_08048"
    INDEX 01 00:04:38
  TRACK 07 AUDIO
    TITLE "0:"
    INDEX 01 00:05:32
  TRACK 08 AUDIO
    TITLE "10:cjc026_08049"
    INDEX 01 00:05:59
  TRACK 09 AUDIO
    TITLE "0:"
    INDEX 01 00:06:59
  TRACK 10 AUDIO
    TITLE "11:cjc026_08050"
    INDEX 01 00:07:11
  TRACK 11 AUDIO
    TITLE "0:"
    INDEX 01 00:08:09
  TRACK 12 AUDIO
    TITLE "12:cjc026_08051"
    INDEX 01 00:08:34
  TRACK 13 AUDIO
    TITLE "0:"
    INDEX 01 00:09:34
  TRACK 14 AUDIO
    TITLE "10:cjc026_08052"
    INDEX 01 00:09:59
  TRACK 15 AUDIO
    TITLE "0:"
    INDEX 01 00:10:55
  TRACK 16 AUDIO
    TITLE "11:cjc026_08053"
    INDEX 01 00:11:05
  TRACK 17 AUDIO
    TITLE "0:"
    INDEX 01 00:12:32
  TRACK 18 AUDIO
    TITLE "12:cjc026_08054"
    INDEX 01 00:12:58
  TRACK 19 AUDIO
    TITLE "0:"
    INDEX 01 00:13:53
  TRACK 20 AUDIO
    TITLE "10:cjc026_08055"
    INDEX 01 00:14:04
  TRACK 21 AUDIO
    TITLE "0:"
    INDEX 01 00:14:62
  TRACK 22 AUDIO
    TITLE "11:cjc026_08056"
    INDEX 01 00:15:15
  TRACK 23 AUDIO
    TITLE "0:"
    INDEX 01 00:16:24
  TRACK 24 AUDIO
    TITLE "12:cjc026_08057"
    INDEX 01 00:16:49
  TRACK 25 AUDIO
    TITLE "0:"
    INDEX 01 00:17:33
  TRACK 26 AUDIO
    TITLE "10:cjc026_08058"
    INDEX 01 00:17:59
  TRACK 27 AUDIO
    TITLE "0:"
    INDEX 01 00:18:54
  TRACK 28 AUDIO
    TITLE "11:cjc026_08059"
    INDEX 01 00:19:05
  TRACK 29 AUDIO
    TITLE "0:"
    INDEX 01 00:20:28
  TRACK 30 AUDIO
    TITLE "12:cjc026_08060"
    INDEX 01 00:20:53
  TRACK 31 AUDIO
    TITLE "0:"
    INDEX 01 00:21:47
  TRACK 32 AUDIO
    TITLE "10:cjc026_08061"
    INDEX 01 00:21:74
  TRACK 33 AUDIO
    TITLE "0:"
    INDEX 01 00:22:62
  TRACK 34 AUDIO
    TITLE "11:cjc026_08062"
    INDEX 01 00:23:12
  TRACK 35 AUDIO
    TITLE "0:"
    INDEX 01 00:24:00
  TRACK 36 AUDIO
    TITLE "12:cjc026_08063"
    INDEX 01 00:24:25
  TRACK 37 AUDIO
    TITLE "0:"
    INDEX 01 00:25:15
  TRACK 38 AUDIO
    TITLE "10:cjc026_08064"
    INDEX 01 00:25:43
  TRACK 39 AUDIO
    TITLE "0:"
    INDEX 01 00:26:36
  TRACK 40 AUDIO
    TITLE "11:cjc026_08065"
    INDEX 01 00:26:66
  TRACK 41 AUDIO
    TITLE "0:"
    INDEX 01 00:27:71
  TRACK 42 AUDIO
    TITLE "12:cjc026_08066"
    INDEX 01 00:28:23
  TRACK 43 AUDIO
    TITLE "0:"
    INDEX 01 00:29:19
  TRACK 44 AUDIO
    TITLE "10:cjc026_08067"
    INDEX 01 00:29:44
  TRACK 45 AUDIO
    TITLE "0:"
    INDEX 01 00:30:32
  TRACK 46 AUDIO
    TITLE "11:cjc026_08068"
    INDEX 01 00:30:59
  TRACK 47 AUDIO
    TITLE "0:"
    INDEX 01 00:31:47
  TRACK 48 AUDIO
    TITLE "12:cjc026_08069"
    INDEX 01 00:31:73
  TRACK 49 AUDIO
    TITLE "0:"
    INDEX 01 00:32:60
  TRACK 50 AUDIO
    TITLE "10:cjc026_08070"
    INDEX 01 00:33:13
  TRACK 51 AUDIO
    TITLE "0:"
    INDEX 01 00:34:02
  TRACK 52 AUDIO
    TITLE "11:cjc026_08071"
    INDEX 01 00:34:30
  TRACK 53 AUDIO
    TITLE "0:"
    INDEX 01 00:35:25
  TRACK 54 AUDIO
    TITLE "12:cjc026_08072"
    INDEX 01 00:35:53
  TRACK 55 AUDIO
    TITLE "0:"
    INDEX 01 00:36:42
  TRACK 56 AUDIO
    TITLE "10:cjc026_08073"
    INDEX 01 00:36:68
  TRACK 57 AUDIO
    TITLE "0:"
    INDEX 01 00:37:63
  TRACK 58 AUDIO
    TITLE "11:cjc026_08074"
    INDEX 01 00:38:16
  TRACK 59 AUDIO
    TITLE "0:"
    INDEX 01 00:39:27
  TRACK 60 AUDIO
    TITLE "12:cjc026_08075"
    INDEX 01 00:39:52
  TRACK 61 AUDIO
    TITLE "0:"
    INDEX 01 00:40:48
  TRACK 62 AUDIO
    TITLE "10:cjc026_08076"
    INDEX 01 00:40:73
  TRACK 63 AUDIO
    TITLE "0:"
    INDEX 01 00:41:61
  TRACK 64 AUDIO
    TITLE "11:cjc026_08077"
    INDEX 01 00:42:14
  TRACK 65 AUDIO
    TITLE "0:"
    INDEX 01 00:43:01
  TRACK 66 AUDIO
    TITLE "12:cjc026_08078"
    INDEX 01 00:43:27
  TRACK 67 AUDIO
    TITLE "0:"
    INDEX 01 00:44:14
  TRACK 68 AUDIO
    TITLE "10:cjc026_08079"
    INDEX 01 00:44:42
  TRACK 69 AUDIO
    TITLE "0:"
    INDEX 01 00:45:43
  TRACK 70 AUDIO
    TITLE "11:cjc026_08080"
    INDEX 01 00:45:71
  TRACK 71 AUDIO
    TITLE "0:"
    INDEX 01 00:46:62
  TRACK 72 AUDIO
    TITLE "12:cjc026_08081"
    INDEX 01 00:47:15
  TRACK 73 AUDIO
    TITLE "0:"
    INDEX 01 00:48:14
